<?xml version="1.0" encoding="UTF-8"?>
<svg xmlns="http://www.w3.org/2000/svg" width="1200" height="900" viewBox="0 0 1200 900" fill="none">
  <defs>
    <linearGradient id="bg2" x1="0" y1="0" x2="1200" y2="900" gradientUnits="userSpaceOnUse">
      <stop stop-color="#14171C"/>
      <stop offset="1" stop-color="#232933"/>
    </linearGradient>
    <filter id="blur2" x="-20%" y="-20%" width="140%" height="140%">
      <feGaussianBlur stdDeviation="16"/>
    </filter>
  </defs>
  <rect width="1200" height="900" fill="url(#bg2)"/>
  <circle cx="160" cy="180" r="160" fill="#0F9F8A" opacity="0.14"/>
  <circle cx="1040" cy="740" r="200" fill="#4F7CAC" opacity="0.12"/>
  <rect x="140" y="140" width="920" height="620" rx="24" fill="#1B212A" stroke="#3A4452"/>
  <rect x="140" y="140" width="220" height="620" fill="#171C24"/>
  <rect x="170" y="180" width="140" height="18" rx="9" fill="#0F9F8A" opacity="0.7"/>
  <rect x="170" y="230" width="160" height="12" rx="6" fill="#8A94A3" opacity="0.35"/>
  <rect x="170" y="260" width="140" height="12" rx="6" fill="#8A94A3" opacity="0.2"/>
  <rect x="170" y="290" width="150" height="12" rx="6" fill="#8A94A3" opacity="0.2"/>
  <rect x="170" y="320" width="120" height="12" rx="6" fill="#8A94A3" opacity="0.2"/>
  <g filter="url(#blur2)">
    <rect x="400" y="190" width="280" height="150" rx="16" fill="#0F9F8A" opacity="0.28"/>
    <rect x="710" y="190" width="280" height="150" rx="16" fill="#4F7CAC" opacity="0.24"/>
    <rect x="400" y="370" width="590" height="220" rx="16" fill="#8A94A3" opacity="0.16"/>
  </g>
  <rect x="400" y="620" width="180" height="40" rx="10" fill="#0F9F8A" opacity="0.55"/>
  <rect x="600" y="620" width="120" height="40" rx="10" fill="#3A4452"/>
  <text x="400" y="720" fill="#D7DEE8" font-family="ui-sans-serif, system-ui" font-size="28" font-weight="600">Ops Platform</text>
  <text x="400" y="758" fill="#8A94A3" font-family="ui-sans-serif, system-ui" font-size="18">Dummy preview · confidential product UI omitted</text>
</svg>
